<?xml version="1.0" encoding="iso-8859-1"?>
<!-- Generator: Adobe Illustrator 19.0.0, SVG Export Plug-In . SVG Version: 6.00 Build 0)  -->
<svg version="1.1" id="Layer_1" xmlns="http://www.w3.org/2000/svg" xmlns:xlink="http://www.w3.org/1999/xlink" x="0px" y="0px"
	 viewBox="0 0 512 512" style="enable-background:new 0 0 512 512;" xml:space="preserve">
<g>
	<g>
		<path d="M213.244,102.614H84.977c-4.427,0-8.017,3.589-8.017,8.017s3.589,8.017,8.017,8.017h128.267
			c4.427,0,8.017-3.589,8.017-8.017S217.672,102.614,213.244,102.614z"/>
	</g>
</g>
<g>
	<g>
		<path d="M213.244,171.023H84.977c-4.427,0-8.017,3.589-8.017,8.017s3.589,8.017,8.017,8.017h128.267
			c4.427,0,8.017-3.589,8.017-8.017S217.672,171.023,213.244,171.023z"/>
	</g>
</g>
<g>
	<g>
		<path d="M213.244,239.432H84.977c-4.427,0-8.017,3.589-8.017,8.017s3.589,8.017,8.017,8.017h128.267
			c4.427,0,8.017-3.589,8.017-8.017S217.672,239.432,213.244,239.432z"/>
	</g>
</g>
<g>
	<g>
		<path d="M213.244,307.841H84.977c-4.427,0-8.017,3.589-8.017,8.017s3.589,8.017,8.017,8.017h128.267
			c4.427,0,8.017-3.589,8.017-8.017S217.672,307.841,213.244,307.841z"/>
	</g>
</g>
<g>
	<g>
		<path d="M119.182,136.818H84.977c-4.427,0-8.017,3.589-8.017,8.017s3.589,8.017,8.017,8.017h34.205
			c4.427,0,8.017-3.589,8.017-8.017S123.609,136.818,119.182,136.818z"/>
	</g>
</g>
<g>
	<g>
		<path d="M119.182,342.046H84.977c-4.427,0-8.017,3.589-8.017,8.017s3.589,8.017,8.017,8.017h34.205
			c4.427,0,8.017-3.589,8.017-8.017S123.609,342.046,119.182,342.046z"/>
	</g>
</g>
<g>
	<g>
		<path d="M213.244,342.046h-59.858c-4.427,0-8.017,3.589-8.017,8.017s3.589,8.017,8.017,8.017h59.858
			c4.427,0,8.017-3.589,8.017-8.017S217.672,342.046,213.244,342.046z"/>
	</g>
</g>
<g>
	<g>
		<path d="M427.023,342.046h-59.858c-4.427,0-8.017,3.589-8.017,8.017s3.589,8.017,8.017,8.017h59.858
			c4.427,0,8.017-3.589,8.017-8.017S431.45,342.046,427.023,342.046z"/>
	</g>
</g>
<g>
	<g>
		<path d="M213.244,273.637H179.04c-4.427,0-8.017,3.589-8.017,8.017s3.589,8.017,8.017,8.017h34.205
			c4.427,0,8.017-3.589,8.017-8.017S217.672,273.637,213.244,273.637z"/>
	</g>
</g>
<g>
	<g>
		<path d="M144.835,273.637H84.977c-4.427,0-8.017,3.589-8.017,8.017s3.589,8.017,8.017,8.017h59.858
			c4.427,0,8.017-3.589,8.017-8.017S149.262,273.637,144.835,273.637z"/>
	</g>
</g>
<g>
	<g>
		<path d="M136.284,205.228H84.977c-4.427,0-8.017,3.589-8.017,8.017s3.589,8.017,8.017,8.017h51.307
			c4.427,0,8.017-3.589,8.017-8.017S140.711,205.228,136.284,205.228z"/>
	</g>
</g>
<g>
	<g>
		<path d="M213.244,205.228h-42.756c-4.427,0-8.017,3.589-8.017,8.017s3.589,8.017,8.017,8.017h42.756
			c4.427,0,8.017-3.589,8.017-8.017S217.672,205.228,213.244,205.228z"/>
	</g>
</g>
<g>
	<g>
		<path d="M213.244,136.818h-59.858c-4.427,0-8.017,3.589-8.017,8.017s3.589,8.017,8.017,8.017h59.858
			c4.427,0,8.017-3.589,8.017-8.017S217.672,136.818,213.244,136.818z"/>
	</g>
</g>
<g>
	<g>
		<path d="M427.023,102.614H298.756c-4.427,0-8.017,3.589-8.017,8.017s3.589,8.017,8.017,8.017h128.267
			c4.427,0,8.017-3.589,8.017-8.017S431.45,102.614,427.023,102.614z"/>
	</g>
</g>
<g>
	<g>
		<path d="M427.023,171.023H298.756c-4.427,0-8.017,3.589-8.017,8.017s3.589,8.017,8.017,8.017h128.267
			c4.427,0,8.017-3.589,8.017-8.017S431.45,171.023,427.023,171.023z"/>
	</g>
</g>
<g>
	<g>
		<path d="M427.023,239.432H298.756c-4.427,0-8.017,3.589-8.017,8.017s3.589,8.017,8.017,8.017h128.267
			c4.427,0,8.017-3.589,8.017-8.017S431.45,239.432,427.023,239.432z"/>
	</g>
</g>
<g>
	<g>
		<path d="M427.023,307.841H298.756c-4.427,0-8.017,3.589-8.017,8.017s3.589,8.017,8.017,8.017h128.267
			c4.427,0,8.017-3.589,8.017-8.017S431.45,307.841,427.023,307.841z"/>
	</g>
</g>
<g>
	<g>
		<path d="M332.96,136.818h-34.205c-4.427,0-8.017,3.589-8.017,8.017s3.589,8.017,8.017,8.017h34.205
			c4.427,0,8.017-3.589,8.017-8.017S337.388,136.818,332.96,136.818z"/>
	</g>
</g>
<g>
	<g>
		<path d="M332.96,342.046h-34.205c-4.427,0-8.017,3.589-8.017,8.017s3.589,8.017,8.017,8.017h34.205
			c4.427,0,8.017-3.589,8.017-8.017S337.388,342.046,332.96,342.046z"/>
	</g>
</g>
<g>
	<g>
		<path d="M427.023,273.637h-34.205c-4.427,0-8.017,3.589-8.017,8.017s3.589,8.017,8.017,8.017h34.205
			c4.427,0,8.017-3.589,8.017-8.017S431.45,273.637,427.023,273.637z"/>
	</g>
</g>
<g>
	<g>
		<path d="M358.614,273.637h-59.858c-4.427,0-8.017,3.589-8.017,8.017s3.589,8.017,8.017,8.017h59.858
			c4.427,0,8.017-3.589,8.017-8.017S363.041,273.637,358.614,273.637z"/>
	</g>
</g>
<g>
	<g>
		<path d="M350.063,205.228h-51.307c-4.427,0-8.017,3.589-8.017,8.017s3.589,8.017,8.017,8.017h51.307
			c4.427,0,8.017-3.589,8.017-8.017S354.49,205.228,350.063,205.228z"/>
	</g>
</g>
<g>
	<g>
		<path d="M427.023,205.228h-42.756c-4.427,0-8.017,3.589-8.017,8.017s3.589,8.017,8.017,8.017h42.756
			c4.427,0,8.017-3.589,8.017-8.017S431.45,205.228,427.023,205.228z"/>
	</g>
</g>
<g>
	<g>
		<path d="M427.023,136.818h-59.858c-4.427,0-8.017,3.589-8.017,8.017s3.589,8.017,8.017,8.017h59.858
			c4.427,0,8.017-3.589,8.017-8.017S431.45,136.818,427.023,136.818z"/>
	</g>
</g>
<g>
	<g>
		<path d="M486.881,85.511h-9.086V59.324c0-4.427-3.589-8.017-8.017-8.017H281.653c-10.269,0-19.472,4.626-25.653,11.898
			c-6.181-7.272-15.385-11.898-25.653-11.898H42.221c-4.427,0-8.017,3.589-8.017,8.017v26.188h-9.086
			C11.268,85.511,0,96.78,0,110.63v316.392c0,13.851,11.268,25.119,25.119,25.119h190.739c2.829,5.093,8.26,8.551,14.489,8.551
			h51.307c6.228,0,11.659-3.458,14.489-8.551h190.739c13.851,0,25.119-11.268,25.119-25.119V110.63
			C512,96.78,500.732,85.511,486.881,85.511z M213.779,436.109H25.119c-5.01,0-9.086-4.076-9.086-9.086V110.63
			c0-5.01,4.076-9.086,9.086-9.086h9.086v308.376c0,4.427,3.589,8.017,8.017,8.017h171.557V436.109z M50.238,401.904V93.539
			c0-0.003,0-0.006,0-0.011s0-0.006,0-0.011V67.34h180.109c9.725,0,17.637,7.912,17.637,17.637v316.927H50.238z M282.188,444.125
			c0,0.295-0.239,0.534-0.534,0.534h-51.307c-0.295,0-0.534-0.239-0.534-0.534v-26.188H256h26.188V444.125z M264.017,401.904V84.977
			c0-9.725,7.912-17.637,17.637-17.637h180.109v334.564H264.017z M495.967,427.023c0,5.01-4.076,9.086-9.086,9.086h-188.66v-18.171
			h171.557c4.427,0,8.017-3.589,8.017-8.017V101.545h9.086c5.01,0,9.086,4.076,9.086,9.086V427.023z"/>
	</g>
</g>
<g>
</g>
<g>
</g>
<g>
</g>
<g>
</g>
<g>
</g>
<g>
</g>
<g>
</g>
<g>
</g>
<g>
</g>
<g>
</g>
<g>
</g>
<g>
</g>
<g>
</g>
<g>
</g>
<g>
</g>
</svg>
